<?xml version="1.0" encoding="UTF-8"?>
<svg xmlns="http://www.w3.org/2000/svg" xmlns:xlink="http://www.w3.org/1999/xlink" width="641.1pt" height="539.3pt" viewBox="0 0 641.1 539.3" version="1.1">
<g id="surface1">
<path style=" stroke:none;fill-rule:evenodd;fill:rgb(100%,100%,100%);fill-opacity:1;" d="M 319.523438 524.398438 C 319.039063 523.492188 318.53125 522.613281 318.019531 521.707031 C 295.425781 487.445313 253.328125 472.402344 199.035156 466.359375 C 144.679688 460.253906 78.433594 463.179688 8.011719 464.566406 L 7.21875 464.621094 L 7.21875 463.804688 C 10.140625 395.511719 21.410156 293.984375 48.289063 233.183594 C 73.691406 174.460938 135.539063 136.871094 190.011719 109.03125 C 207.039063 100.320313 227.761719 91.410156 247.824219 80.992188 C 267.863281 70.574219 287.164063 58.621094 301.496094 43.863281 C 311.320313 33.5625 316.796875 24.164063 319.863281 16.671875 L 320.601563 14.941406 L 321.3125 16.671875 C 324.371094 24.164063 329.882813 33.5625 339.730469 43.777344 C 354.035156 58.621094 373.339844 70.539063 393.378906 80.992188 C 413.414063 91.410156 434.140625 100.320313 451.199219 109.03125 C 505.640625 136.871094 567.484375 174.460938 592.886719 233.183594 C 619.796875 293.984375 631.0625 395.511719 633.929688 463.804688 L 633.988281 464.621094 L 633.164063 464.566406 C 562.746094 463.179688 496.496094 460.253906 442.171875 466.359375 C 387.84375 472.433594 345.722656 487.445313 323.15625 521.734375 C 322.644531 522.613281 322.136719 523.492188 321.652344 524.371094 C 321.59375 524.488281 321.539063 524.601563 321.484375 524.6875 C 321.371094 524.886719 321.140625 525.082031 320.859375 525.164063 L 320.539063 525.28125 L 320.261719 525.140625 C 319.890625 524.941406 319.664063 524.660156 319.523438 524.398438 Z M 319.523438 524.398438 "/>
<path style=" stroke:none;fill-rule:evenodd;fill:rgb(6.272888%,16.479492%,51.367188%);fill-opacity:1;" d="M 406.464844 122.597656 L 413.078125 126.742188 L 412.9375 150.472656 L 406.492188 147.265625 Z M 406.464844 122.597656 "/>
<path style=" stroke:none;fill-rule:evenodd;fill:rgb(6.272888%,16.479492%,51.367188%);fill-opacity:1;" d="M 340.867188 102.675781 L 347.285156 103.808594 L 347.109375 118.453125 C 347.109375 118.453125 332.441406 116.980469 316.429688 117.578125 C 301.664063 118.117188 288.558594 121.011719 282.621094 122.519531 L 282.621094 116.585938 L 287.652344 114.796875 L 287.652344 91.011719 L 294.515625 91.011719 L 294.515625 113.4375 L 299.566406 112.894531 L 299.566406 88.996094 L 305.757813 88.996094 L 305.757813 112.015625 L 321.453125 111.078125 L 321.453125 100.546875 L 327.414063 100.546875 L 327.414063 111.105469 L 330.90625 111.105469 L 330.90625 101.113281 L 337.71875 101.113281 L 337.71875 111.304688 L 340.867188 111.476563 Z M 340.867188 102.675781 "/>
<path style=" stroke:none;fill-rule:evenodd;fill:rgb(6.272888%,16.479492%,51.367188%);fill-opacity:1;" d="M 259.519531 98.984375 L 259.519531 92.570313 L 276.238281 84.820313 C 276.238281 84.820313 279.132813 84.28125 279.132813 88.199219 C 279.132813 92.117188 278.679688 102.449219 278.679688 102.449219 L 251.855469 116.300781 L 251.855469 118.714844 L 275.046875 108.609375 L 278.652344 110.367188 L 278.652344 122.492188 C 278.652344 122.492188 263.011719 130.234375 254.664063 134.578125 C 246.351563 138.894531 229.746094 148.058594 229.746094 148.058594 L 226.789063 147.71875 L 226.789063 134.664063 L 232.246094 131.285156 L 232.246094 140.253906 C 232.246094 140.253906 244.617188 133.496094 253.277344 128.953125 C 262.273438 124.21875 272.320313 119.503906 272.320313 119.503906 L 272.320313 116.640625 C 272.320313 116.640625 254.550781 125.039063 249.785156 127.539063 L 246.433594 127.539063 L 246.433594 112.296875 L 273.261719 98.105469 L 273.261719 92.257813 L 259.492188 99.242188 Z M 259.519531 98.984375 "/>
<path style=" stroke:none;fill-rule:evenodd;fill:rgb(6.272888%,16.479492%,51.367188%);fill-opacity:1;" d="M 369.789063 121.152344 L 378.761719 125.355469 L 378.761719 135.828125 L 374.816406 135.914063 L 357.894531 129.921875 L 357.894531 143.972656 L 351.371094 141.734375 L 351.371094 123.28125 L 363.121094 126.179688 L 363.121094 99.953125 L 369.195313 102.652344 L 369.195313 111.84375 L 376.40625 114.996094 L 376.40625 108.921875 C 376.40625 108.921875 376.0625 104.863281 380.097656 105.230469 C 384.097656 105.570313 391.984375 111.414063 391.984375 111.414063 L 391.929688 118.910156 L 383.132813 114.371094 L 383.132813 118.453125 L 391.960938 122.316406 L 391.960938 130.863281 L 397.777344 134.183594 L 397.777344 124.277344 L 404.164063 127.507813 L 404.164063 142.4375 C 404.164063 142.4375 403.796875 143.605469 401.121094 142.8125 C 398.433594 142.015625 385.996094 134.289063 385.996094 134.289063 L 385.996094 126.886719 L 369.820313 119.363281 Z M 369.789063 121.152344 "/>
<path style=" stroke:none;fill-rule:evenodd;fill:rgb(6.272888%,16.479492%,51.367188%);fill-opacity:1;" d="M 320.148438 137.300781 L 391.222656 245.84375 L 320.886719 369.59375 L 249.445313 246.410156 Z M 320.148438 137.300781 "/>
<path style=" stroke:none;fill-rule:evenodd;fill:rgb(6.272888%,16.479492%,51.367188%);fill-opacity:1;" d="M 402.769531 244.9375 L 574.523438 244.9375 L 473.902344 373.261719 L 331.132813 373.261719 Z M 402.769531 244.9375 "/>
<path style=" stroke:none;fill-rule:evenodd;fill:rgb(6.272888%,16.479492%,51.367188%);fill-opacity:1;" d="M 237.890625 244.9375 L 66.167969 244.9375 L 166.789063 373.261719 L 309.535156 373.261719 Z M 237.890625 244.9375 "/>
<path style=" stroke:none;fill-rule:evenodd;fill:rgb(6.272888%,16.479492%,51.367188%);fill-opacity:1;" d="M 320.601563 523.945313 C 320.828125 523.863281 320.855469 523.695313 320.996094 523.523438 C 321.484375 522.585938 321.996094 521.730469 322.503906 520.851563 C 368.058594 451.65625 492.265625 460.539063 633.195313 463.351563 C 630.296875 395.058594 619.003906 293.640625 592.203125 233.015625 C 566.914063 174.570313 505.296875 137.078125 450.828125 109.234375 C 416.734375 91.804688 367.945313 73.664063 339.195313 43.835938 C 329.230469 33.5625 323.722656 24.050781 320.601563 16.472656 C 317.480469 24.050781 311.914063 33.5625 302.039063 43.894531 C 273.230469 73.664063 224.464844 91.804688 190.351563 109.234375 C 135.878906 137.078125 74.261719 174.570313 48.996094 233.015625 C 22.171875 293.640625 10.90625 395.058594 8.011719 463.351563 C 148.910156 460.539063 273.144531 451.65625 318.671875 520.851563 C 319.210938 521.730469 319.726563 522.617188 320.203125 523.546875 C 320.289063 523.71875 320.40625 523.863281 320.601563 523.945313 Z M 312.113281 524.914063 C 269.683594 459.003906 117.660156 469.417969 0.0078125 471.890625 C 0.0078125 471.890625 1.285156 429.117188 7.074219 380.328125 C 12.835938 331.679688 23.253906 272.15625 41.957031 229.921875 C 75.90625 151.414063 171.019531 109.683594 243.910156 74.546875 C 314.300781 40.597656 316.601563 3.472656 316.65625 -0.046875 L 324.546875 -0.046875 C 324.605469 3.472656 326.902344 40.597656 397.289063 74.546875 C 470.15625 109.683594 565.300781 151.414063 599.246094 229.921875 C 617.925781 272.15625 628.339844 331.679688 634.101563 380.328125 C 639.921875 429.117188 641.195313 471.890625 641.195313 471.890625 C 523.546875 469.417969 371.523438 459.003906 329.0625 524.914063 C 326.449219 528.828125 323.664063 533.59375 320.71875 539.25 C 320.71875 539.25 314.753906 528.828125 312.113281 524.914063 Z M 312.113281 524.914063 "/>
<path style=" stroke:none;fill-rule:evenodd;fill:rgb(6.272888%,16.479492%,51.367188%);fill-opacity:1;" d="M 206.359375 438.484375 L 206.359375 397.980469 L 197.8125 397.980469 L 197.8125 445.914063 L 234.003906 445.914063 L 234.003906 438.484375 Z M 206.359375 438.484375 "/>
<path style=" stroke:none;fill-rule:evenodd;fill:rgb(6.272888%,16.479492%,51.367188%);fill-opacity:1;" d="M 288.019531 397.980469 L 288.019531 431.019531 C 288.019531 433.09375 287.871094 434.621094 287.59375 435.648438 C 287.164063 437.347656 286.285156 438.316406 284.867188 438.710938 C 283.105469 439.21875 279.304688 439.476563 273.515625 439.476563 C 269.566406 439.476563 266.902344 439.363281 265.539063 439.136719 C 263.410156 438.765625 261.988281 438.058594 261.308594 437.035156 C 260.910156 436.441406 260.488281 434.910156 260.488281 431.019531 L 260.488281 397.980469 L 251.945313 397.980469 L 251.945313 431.019531 C 251.945313 434.996094 252.453125 438.027344 253.503906 440.019531 C 254.78125 442.433594 257.105469 444.214844 260.398438 445.324219 C 261.847656 445.808594 263.523438 446.148438 265.421875 446.316406 C 267.269531 446.460938 270.335938 446.539063 274.539063 446.539063 C 280.46875 446.539063 284.554688 446.289063 286.652344 445.808594 C 290.628906 444.871094 293.441406 442.914063 294.972656 440.019531 C 296.023438 438.117188 296.5625 435.078125 296.5625 431.019531 L 296.5625 397.980469 Z M 288.019531 397.980469 "/>
<path style=" stroke:none;fill-rule:evenodd;fill:rgb(6.272888%,16.479492%,51.367188%);fill-opacity:1;" d="M 364.882813 397.980469 L 347.171875 436.695313 L 329.539063 398.265625 L 329.402344 397.980469 L 317.140625 397.980469 L 317.140625 445.917969 L 325.683594 445.917969 L 325.683594 407.714844 L 343.308594 445.609375 L 343.453125 445.917969 L 351.058594 445.917969 L 368.742188 407.746094 L 368.742188 445.917969 L 377.285156 445.917969 L 377.285156 397.980469 Z M 364.882813 397.980469 "/>
<path style=" stroke:none;fill-rule:evenodd;fill:rgb(6.272888%,16.479492%,51.367188%);fill-opacity:1;" d="M 438.59375 423.867188 C 437.117188 421.117188 434.363281 419.355469 430.386719 418.617188 C 428.492188 418.308594 424.882813 418.046875 419.691406 417.851563 C 415.0625 417.703125 412.222656 417.566406 411.289063 417.453125 C 408.988281 417.195313 407.484375 416.539063 406.976563 415.550781 C 406.464844 414.53125 406.179688 413.023438 406.179688 411.039063 C 406.179688 409.503906 406.371094 408.257813 406.773438 407.347656 C 407.371094 405.933594 408.847656 405.046875 411.148438 404.710938 C 412.480469 404.511719 415.519531 404.398438 420.203125 404.398438 C 423.519531 404.398438 425.824219 404.566406 427.070313 404.847656 C 428.886719 405.304688 429.882813 406.210938 430.21875 407.714844 C 430.414063 408.539063 430.507813 410.074219 430.507813 412.199219 L 430.507813 412.910156 L 439.050781 412.910156 L 439.050781 412.199219 C 439.050781 410.355469 439.019531 409.109375 438.988281 408.539063 C 438.59375 403.203125 435.953125 399.765625 431.15625 398.351563 C 428.886719 397.664063 424.714844 397.328125 418.726563 397.328125 C 415.632813 397.328125 412.851563 397.414063 410.492188 397.578125 C 407.058594 397.839844 404.21875 398.746094 402.035156 400.246094 C 399.140625 402.238281 397.664063 406.101563 397.664063 411.71875 C 397.664063 415.632813 398.515625 418.617188 400.21875 420.546875 C 402.175781 422.816406 405.214844 424.238281 409.304688 424.746094 C 410.546875 424.886719 413.53125 425.054688 418.214844 425.230469 C 422.867188 425.398438 425.824219 425.539063 426.984375 425.65625 C 429.054688 425.914063 430.363281 426.535156 430.84375 427.558594 C 431.242188 428.324219 431.4375 429.570313 431.4375 431.242188 C 431.4375 435.648438 430.820313 437.203125 430.308594 437.777344 C 429.683594 438.398438 428.660156 438.851563 427.214844 439.109375 C 425.648438 439.363281 422.898438 439.476563 419.09375 439.476563 C 416.257813 439.476563 413.785156 439.445313 411.769531 439.363281 C 410.039063 439.304688 408.761719 439.050781 407.996094 438.597656 C 407.230469 438.117188 406.691406 437.433594 406.371094 436.527344 C 406.039063 435.53125 405.867188 433.914063 405.839844 431.730469 L 405.839844 429.261719 L 397.289063 429.261719 L 397.289063 429.996094 C 397.382813 432.949219 397.46875 434.90625 397.632813 435.953125 C 398.316406 441.097656 401.070313 444.390625 405.839844 445.722656 C 407.796875 446.289063 411.65625 446.539063 417.308594 446.539063 C 421.9375 446.539063 425.679688 446.433594 428.371094 446.171875 C 432.066406 445.863281 434.984375 444.667969 437.007813 442.660156 C 438.988281 440.664063 439.984375 437.035156 439.984375 431.84375 C 439.984375 428.289063 439.53125 425.628906 438.59375 423.867188 Z M 438.59375 423.867188 "/>
</g>
</svg>
