<?xml version="1.0" encoding="UTF-8"?>
<svg xmlns="http://www.w3.org/2000/svg" xmlns:xlink="http://www.w3.org/1999/xlink" width="366.42pt" height="367.52pt" viewBox="0 0 366.42 367.52" version="1.1">
<defs>
<clipPath id="clip1">
  <path d="M 343 162 L 366.421875 162 L 366.421875 182 L 343 182 Z M 343 162 "/>
</clipPath>
<clipPath id="clip2">
  <path d="M 343 188 L 366.421875 188 L 366.421875 211 L 343 211 Z M 343 188 "/>
</clipPath>
<clipPath id="clip3">
  <path d="M 172 342 L 196 342 L 196 367.519531 L 172 367.519531 Z M 172 342 "/>
</clipPath>
</defs>
<g id="surface1">
<path style=" stroke:none;fill-rule:nonzero;fill:rgb(14.898682%,57.299805%,81.599426%);fill-opacity:1;" d="M 183.988281 336.285156 L 93.113281 306.757813 L 36.949219 229.453125 L 36.949219 133.902344 L 93.113281 56.601563 L 183.988281 27.074219 L 274.863281 56.601563 L 331.027344 133.902344 L 331.027344 229.453125 L 274.863281 306.757813 "/>
<path style=" stroke:none;fill-rule:nonzero;fill:rgb(55.299377%,84.298706%,96.899414%);fill-opacity:1;" d="M 183.988281 27.074219 L 218.769531 74.628906 L 274.863281 56.601563 L 275.050781 115.519531 L 331.027344 133.902344 L 296.546875 181.679688 L 331.027344 229.453125 L 275.050781 247.839844 L 274.863281 306.757813 L 218.769531 288.730469 L 183.988281 336.285156 L 149.203125 288.730469 L 93.113281 306.757813 L 92.925781 247.839844 L 36.949219 229.453125 L 71.429688 181.679688 L 36.949219 133.902344 L 92.925781 115.519531 L 93.113281 56.601563 L 149.203125 74.628906 "/>
<path style=" stroke:none;fill-rule:nonzero;fill:rgb(14.898682%,57.299805%,81.599426%);fill-opacity:1;" d="M 285.441406 182.507813 C 285.441406 239.011719 239.632813 284.816406 183.128906 284.816406 C 126.625 284.816406 80.820313 239.011719 80.820313 182.507813 C 80.820313 126.003906 126.625 80.199219 183.128906 80.199219 C 239.632813 80.199219 285.441406 126.003906 285.441406 182.507813 "/>
<path style="fill:none;stroke-width:20;stroke-linecap:butt;stroke-linejoin:miter;stroke:rgb(74.899292%,90.59906%,97.999573%);stroke-opacity:1;stroke-miterlimit:10;" d="M 2854.414063 1850.121875 C 2854.414063 1285.082812 2396.328125 827.035937 1831.289063 827.035937 C 1266.25 827.035937 808.203125 1285.082812 808.203125 1850.121875 C 808.203125 2415.160937 1266.25 2873.207812 1831.289063 2873.207812 C 2396.328125 2873.207812 2854.414063 2415.160937 2854.414063 1850.121875 Z M 2854.414063 1850.121875 " transform="matrix(0.1,0,0,-0.1,0,367.52)"/>
<path style=" stroke:none;fill-rule:nonzero;fill:rgb(100%,100%,100%);fill-opacity:1;" d="M 128.109375 210.515625 C 138.457031 209.4375 146.515625 201.777344 146.789063 192.394531 L 146.816406 192.394531 L 146.816406 154.695313 L 128.109375 154.695313 "/>
<path style=" stroke:none;fill-rule:nonzero;fill:rgb(100%,100%,100%);fill-opacity:1;" d="M 118.828125 154.695313 L 104.390625 154.695313 L 104.390625 192.394531 L 104.417969 192.394531 C 104.6875 201.703125 112.625 209.3125 122.855469 210.484375 L 122.855469 154.695313 L 122.609375 154.695313 "/>
<path style=" stroke:none;fill-rule:nonzero;fill:rgb(100%,100%,100%);fill-opacity:1;" d="M 229.550781 209.03125 L 247.773438 209.03125 L 247.773438 154.695313 L 229.550781 154.695313 Z M 229.550781 209.03125 "/>
<path style=" stroke:none;fill-rule:nonzero;fill:rgb(100%,100%,100%);fill-opacity:1;" d="M 214.914063 178.476563 L 225.894531 154.695313 L 214.914063 154.695313 "/>
<path style=" stroke:none;fill-rule:nonzero;fill:rgb(100%,100%,100%);fill-opacity:1;" d="M 250.738281 154.695313 L 261.71875 178.476563 L 261.71875 154.695313 "/>
<path style=" stroke:none;fill-rule:nonzero;fill:rgb(100%,100%,100%);fill-opacity:1;" d="M 186.925781 154.695313 L 184.523438 161.363281 L 197.375 209.03125 L 215.914063 209.03125 L 201.265625 154.695313 "/>
<path style=" stroke:none;fill-rule:nonzero;fill:rgb(100%,100%,100%);fill-opacity:1;" d="M 162.785156 154.695313 L 160.386719 161.363281 L 173.234375 209.03125 L 191.773438 209.03125 L 177.125 154.695313 "/>
<path style=" stroke:none;fill-rule:nonzero;fill:rgb(100%,100%,100%);fill-opacity:1;" d="M 149.097656 209.035156 L 167.632813 209.035156 L 158.363281 172.246094 "/>
<path style=" stroke:none;fill-rule:nonzero;fill:rgb(17.999268%,18.798828%,57.299805%);fill-opacity:1;" d="M 122.722656 356.34375 L 126.40625 343.730469 C 127.117188 341.289063 128.175781 339.558594 129.578125 338.53125 C 131.609375 337.078125 134.433594 336.886719 138.0625 337.945313 C 141.691406 339.003906 143.972656 340.691406 144.898438 343.003906 C 145.53125 344.625 145.488281 346.65625 144.777344 349.09375 L 141.09375 361.707031 L 138.964844 361.085938 L 142.648438 348.472656 C 143.914063 344.132813 142.195313 341.277344 137.492188 339.902344 C 132.789063 338.53125 129.804688 340.011719 128.535156 344.351563 L 124.851563 356.964844 "/>
<path style=" stroke:none;fill-rule:nonzero;fill:rgb(17.999268%,18.798828%,57.299805%);fill-opacity:1;" d="M 121.246094 332.917969 L 111.824219 352.152344 L 109.417969 350.972656 L 103.976563 327.933594 L 95.925781 344.367188 L 93.933594 343.390625 L 103.355469 324.152344 L 105.683594 325.292969 L 111.203125 348.375 L 119.253906 331.9375 "/>
<path style=" stroke:none;fill-rule:nonzero;fill:rgb(17.999268%,18.798828%,57.299805%);fill-opacity:1;" d="M 96.316406 319.546875 L 84.648438 337.507813 L 82.785156 336.300781 L 94.453125 318.335938 Z M 96.316406 319.546875 "/>
<path style=" stroke:none;fill-rule:nonzero;fill:rgb(17.999268%,18.798828%,57.299805%);fill-opacity:1;" d="M 79.308594 310.300781 L 60.996094 319.734375 L 59.140625 318.214844 L 80.046875 307.648438 L 81.902344 309.167969 L 75.738281 331.804688 L 73.742188 330.167969 "/>
<path style=" stroke:none;fill-rule:nonzero;fill:rgb(17.999268%,18.798828%,57.299805%);fill-opacity:1;" d="M 68.5625 297.394531 L 52.652344 311.738281 L 41.242188 299.082031 L 42.757813 297.714844 L 52.679688 308.722656 L 58.074219 303.859375 L 48.511719 293.253906 L 50.027344 291.890625 L 59.589844 302.496094 L 65.5625 297.113281 L 55.476563 285.925781 L 56.992188 284.558594 "/>
<path style=" stroke:none;fill-rule:nonzero;fill:rgb(17.999268%,18.798828%,57.299805%);fill-opacity:1;" d="M 35.125 287.457031 L 41.761719 283.136719 L 36.640625 275.265625 C 34.960938 272.6875 32.957031 272.152344 30.625 273.671875 C 28.527344 275.035156 28.285156 276.949219 29.886719 279.414063 Z M 52.578125 278.746094 L 34.625 290.429688 L 28.261719 280.648438 C 25.730469 276.761719 26.082031 273.765625 29.316406 271.660156 C 30.320313 271.003906 31.410156 270.714844 32.578125 270.789063 C 33.847656 270.867188 34.972656 271.386719 35.957031 272.347656 L 36.007813 272.3125 C 35.417969 271.003906 35.386719 269.84375 35.917969 268.828125 C 36.363281 267.96875 37.355469 266.984375 38.90625 265.882813 C 41.019531 264.359375 42.125 263.34375 42.21875 262.828125 L 43.527344 264.84375 C 43.378906 265.34375 42.257813 266.300781 40.167969 267.710938 C 38.601563 268.75 37.726563 269.804688 37.535156 270.871094 C 37.347656 271.9375 37.761719 273.25 38.773438 274.808594 L 43.472656 282.023438 L 51.367188 276.886719 "/>
<path style=" stroke:none;fill-rule:nonzero;fill:rgb(17.999268%,18.798828%,57.299805%);fill-opacity:1;" d="M 18.253906 247.671875 L 19.160156 249.695313 C 16.457031 251.191406 15.96875 253.867188 17.691406 257.71875 C 18.421875 259.34375 19.308594 260.523438 20.363281 261.257813 C 21.457031 262.035156 22.542969 262.1875 23.621094 261.703125 C 24.808594 261.171875 25.417969 260.1875 25.453125 258.746094 C 25.460938 257.644531 25.097656 255.660156 24.359375 252.789063 C 23.722656 250.339844 23.457031 248.496094 23.5625 247.265625 C 23.738281 245.410156 24.667969 244.105469 26.347656 243.355469 C 28.535156 242.371094 30.546875 242.535156 32.382813 243.839844 C 33.851563 244.867188 35.09375 246.515625 36.105469 248.777344 C 38.632813 254.417969 37.640625 258.414063 33.128906 260.765625 L 32.21875 258.738281 C 34.0625 257.714844 35.097656 256.386719 35.332031 254.746094 C 35.539063 253.402344 35.175781 251.691406 34.246094 249.613281 C 32.464844 245.632813 30.277344 244.222656 27.683594 245.386719 C 26.371094 245.972656 25.742188 247.144531 25.800781 248.890625 C 25.847656 249.769531 26.230469 251.558594 26.957031 254.257813 C 27.667969 256.875 27.898438 258.898438 27.640625 260.328125 C 27.367188 261.921875 26.472656 263.054688 24.957031 263.734375 C 22.984375 264.617188 21.144531 264.46875 19.429688 263.285156 C 17.996094 262.28125 16.796875 260.707031 15.832031 258.550781 C 14.808594 256.269531 14.410156 254.234375 14.640625 252.445313 C 14.917969 250.28125 16.125 248.691406 18.253906 247.671875 "/>
<path style=" stroke:none;fill-rule:nonzero;fill:rgb(17.999268%,18.798828%,57.299805%);fill-opacity:1;" d="M 29.820313 234.007813 L 9.433594 240.574219 L 8.75 238.464844 L 29.140625 231.894531 Z M 29.820313 234.007813 "/>
<path style=" stroke:none;fill-rule:nonzero;fill:rgb(17.999268%,18.798828%,57.299805%);fill-opacity:1;" d="M 25.351563 217.574219 L 6.378906 221.527344 L 8.09375 229.75 L 6.097656 230.164063 L 2.21875 211.546875 L 4.214844 211.128906 L 5.929688 219.351563 L 24.898438 215.402344 "/>
<path style=" stroke:none;fill-rule:nonzero;fill:rgb(17.999268%,18.798828%,57.299805%);fill-opacity:1;" d="M 22.074219 194.054688 L 13.089844 194.578125 L 1.25 204.917969 L 1.082031 202.042969 L 10.808594 193.601563 L 0.167969 186.347656 L 0 183.472656 L 12.960938 192.363281 L 21.945313 191.839844 "/>
<path style=" stroke:none;fill-rule:nonzero;fill:rgb(17.999268%,18.798828%,57.299805%);fill-opacity:1;" d="M 12.277344 160.488281 C 15.246094 161.046875 17.722656 160.546875 19.703125 158.984375 C 21.449219 157.601563 22.558594 155.644531 23.035156 153.109375 C 23.511719 150.574219 23.1875 148.34375 22.0625 146.425781 C 20.78125 144.25 18.65625 142.886719 15.6875 142.328125 C 12.71875 141.769531 10.246094 142.273438 8.261719 143.832031 C 6.519531 145.214844 5.40625 147.175781 4.929688 149.710938 C 4.457031 152.246094 4.78125 154.472656 5.902344 156.394531 C 7.1875 158.566406 9.308594 159.933594 12.277344 160.488281 M 11.835938 162.847656 C 8.296875 162.183594 5.742188 160.503906 4.175781 157.808594 C 2.738281 155.363281 2.324219 152.535156 2.925781 149.332031 C 3.527344 146.128906 4.941406 143.648438 7.164063 141.886719 C 9.605469 139.945313 12.59375 139.304688 16.132813 139.96875 C 19.667969 140.632813 22.222656 142.3125 23.792969 145.007813 C 25.226563 147.457031 25.640625 150.28125 25.039063 153.484375 C 24.4375 156.6875 23.027344 159.171875 20.800781 160.929688 C 18.363281 162.875 15.375 163.511719 11.835938 162.847656 "/>
<path style=" stroke:none;fill-rule:nonzero;fill:rgb(17.999268%,18.798828%,57.299805%);fill-opacity:1;" d="M 28.878906 135.171875 L 8.734375 127.882813 L 14.195313 112.789063 L 16.113281 113.484375 L 11.410156 126.488281 L 18.234375 128.960938 L 22.707031 116.605469 L 24.625 117.296875 L 20.152344 129.652344 L 29.632813 133.082031 "/>
<path style=" stroke:none;fill-rule:nonzero;fill:rgb(17.999268%,18.798828%,57.299805%);fill-opacity:1;" d="M 47.449219 90.84375 L 37.4375 72.464844 L 39.210938 69.863281 L 56.90625 81.933594 L 55.65625 83.769531 L 40.339844 73.320313 L 50.296875 91.617188 L 49.140625 93.3125 L 28.488281 90.691406 L 43.804688 101.140625 L 42.550781 102.972656 L 24.859375 90.902344 L 26.683594 88.226563 "/>
<path style=" stroke:none;fill-rule:nonzero;fill:rgb(17.999268%,18.798828%,57.299805%);fill-opacity:1;" d="M 65.617188 60.453125 L 54.730469 56.3125 L 58.949219 67.195313 Z M 74.332031 63.800781 L 67.699219 61.246094 L 59.769531 69.269531 L 62.351563 75.914063 L 60.664063 77.621094 L 52.265625 55.648438 L 54.082031 53.816406 L 76.148438 61.964844 "/>
<path style=" stroke:none;fill-rule:nonzero;fill:rgb(17.999268%,18.798828%,57.299805%);fill-opacity:1;" d="M 80.582031 58.273438 L 68.019531 40.925781 L 70.191406 39.351563 L 93.089844 45.367188 L 82.355469 30.546875 L 84.15625 29.242188 L 96.714844 46.59375 L 94.621094 48.113281 L 71.648438 42.148438 L 82.378906 56.972656 "/>
<path style=" stroke:none;fill-rule:nonzero;fill:rgb(17.999268%,18.798828%,57.299805%);fill-opacity:1;" d="M 111.863281 28.886719 L 102.90625 21.445313 L 103.375 33.105469 Z M 119.027344 34.875 L 113.578125 30.3125 L 103.476563 35.332031 L 103.769531 42.457031 L 101.617188 43.523438 L 100.789063 20.015625 L 103.101563 18.867188 L 121.339844 33.726563 "/>
<path style=" stroke:none;fill-rule:nonzero;fill:rgb(17.999268%,18.798828%,57.299805%);fill-opacity:1;" d="M 145.789063 25.941406 L 144.34375 22.144531 L 144.285156 22.160156 C 143.667969 24.015625 142.820313 25.476563 141.742188 26.550781 C 140.59375 27.664063 139.03125 28.515625 137.058594 29.105469 C 133.648438 30.121094 130.683594 29.921875 128.175781 28.496094 C 125.765625 27.128906 124.070313 24.808594 123.09375 21.53125 C 122.148438 18.367188 122.371094 15.484375 123.753906 12.878906 C 125.136719 10.277344 127.507813 8.476563 130.859375 7.476563 C 133.621094 6.652344 136.125 6.65625 138.378906 7.488281 C 140.492188 8.277344 141.988281 9.625 142.871094 11.53125 L 140.570313 12.21875 C 139.671875 10.671875 138.378906 9.667969 136.699219 9.210938 C 135.132813 8.777344 133.378906 8.851563 131.441406 9.429688 C 128.683594 10.253906 126.78125 11.675781 125.734375 13.699219 C 124.6875 15.722656 124.574219 18.105469 125.390625 20.84375 C 126.226563 23.644531 127.570313 25.589844 129.417969 26.6875 C 131.304688 27.835938 133.601563 28.007813 136.304688 27.203125 C 141.304688 25.710938 143.503906 22.445313 142.898438 17.410156 L 135.367188 19.65625 L 134.785156 17.699219 L 144.273438 14.871094 L 147.425781 25.449219 "/>
<path style=" stroke:none;fill-rule:nonzero;fill:rgb(17.999268%,18.798828%,57.299805%);fill-opacity:1;" d="M 155.566406 24.003906 L 152.960938 2.742188 L 169.875 0.671875 L 170.125 2.695313 L 155.414063 4.5 L 156.296875 11.703125 L 170.46875 9.96875 L 170.71875 11.992188 L 156.542969 13.730469 L 157.519531 21.710938 L 172.46875 19.878906 L 172.71875 21.902344 "/>
<path style=" stroke:none;fill-rule:nonzero;fill:rgb(17.999268%,18.798828%,57.299805%);fill-opacity:1;" d="M 192.460938 19.296875 L 203.003906 1.21875 L 206.152344 1.390625 L 204.980469 22.777344 L 202.761719 22.65625 L 203.777344 4.144531 L 193.269531 22.136719 L 191.222656 22.023438 L 182.777344 2.992188 L 181.765625 21.507813 L 179.546875 21.382813 L 180.71875 -0.00390625 L 183.953125 0.171875 "/>
<path style=" stroke:none;fill-rule:nonzero;fill:rgb(17.999268%,18.798828%,57.299805%);fill-opacity:1;" d="M 213.074219 24.378906 L 218.027344 3.539063 L 234.605469 7.484375 L 234.136719 9.46875 L 219.71875 6.039063 L 218.035156 13.101563 L 231.929688 16.40625 L 231.457031 18.390625 L 217.566406 15.085938 L 215.703125 22.90625 L 230.355469 26.394531 L 229.886719 28.378906 "/>
<path style=" stroke:none;fill-rule:nonzero;fill:rgb(17.999268%,18.798828%,57.299805%);fill-opacity:1;" d="M 236.457031 30.46875 L 244.730469 10.710938 L 247.203125 11.746094 L 253.988281 34.429688 L 261.058594 17.550781 L 263.105469 18.40625 L 254.828125 38.164063 L 252.441406 37.164063 L 245.574219 14.445313 L 238.503906 31.324219 "/>
<path style=" stroke:none;fill-rule:nonzero;fill:rgb(17.999268%,18.798828%,57.299805%);fill-opacity:1;" d="M 267.210938 45.320313 L 277.40625 28.84375 L 270.265625 24.421875 L 271.339844 22.6875 L 287.511719 32.695313 L 286.4375 34.429688 L 279.296875 30.011719 L 269.097656 46.488281 "/>
<path style=" stroke:none;fill-rule:nonzero;fill:rgb(17.999268%,18.798828%,57.299805%);fill-opacity:1;" d="M 306.503906 66.042969 L 310.671875 55.167969 L 299.78125 59.359375 Z M 303.136719 74.75 L 305.703125 68.125 L 297.703125 60.171875 L 291.050781 62.738281 L 289.351563 61.046875 L 311.34375 52.707031 L 313.171875 54.523438 L 304.964844 76.570313 "/>
<path style=" stroke:none;fill-rule:nonzero;fill:rgb(17.999268%,18.798828%,57.299805%);fill-opacity:1;" d="M 308.664063 81.035156 L 326.050781 68.527344 L 327.613281 70.699219 L 321.535156 93.582031 L 336.390625 82.890625 L 337.683594 84.695313 L 320.300781 97.207031 L 318.785156 95.105469 L 324.8125 72.148438 L 309.960938 82.839844 "/>
<path style=" stroke:none;fill-rule:nonzero;fill:rgb(17.999268%,18.798828%,57.299805%);fill-opacity:1;" d="M 342.730469 97.503906 L 327.140625 105.097656 L 330.6875 112.382813 C 331.625 114.304688 332.917969 115.542969 334.570313 116.097656 C 336.519531 116.726563 338.871094 116.367188 341.625 115.027344 C 346.820313 112.496094 348.371094 109.082031 346.277344 104.785156 Z M 324.335938 103.996094 L 343.589844 94.613281 L 348.148438 103.972656 C 349.5 106.742188 349.6875 109.265625 348.714844 111.539063 C 347.746094 113.816406 345.730469 115.695313 342.675781 117.1875 C 339.851563 118.5625 337.230469 118.980469 334.8125 118.449219 C 332.234375 117.859375 330.308594 116.257813 329.039063 113.652344 "/>
<path style=" stroke:none;fill-rule:nonzero;fill:rgb(17.999268%,18.798828%,57.299805%);fill-opacity:1;" d="M 340.773438 147.277344 L 359.695313 143.097656 L 357.882813 134.894531 L 359.875 134.453125 L 363.980469 153.027344 L 361.988281 153.46875 L 360.175781 145.265625 L 341.25 149.445313 "/>
<g clip-path="url(#clip1)" clip-rule="nonzero">
<path style=" stroke:none;fill-rule:nonzero;fill:rgb(17.999268%,18.798828%,57.299805%);fill-opacity:1;" d="M 343.851563 163.929688 L 365.21875 162.425781 L 366.417969 179.421875 L 364.382813 179.566406 L 363.339844 164.78125 L 356.097656 165.292969 L 357.101563 179.539063 L 355.066406 179.679688 L 354.0625 165.4375 L 346.042969 166.003906 L 347.101563 181.023438 L 345.066406 181.167969 "/>
</g>
<g clip-path="url(#clip2)" clip-rule="nonzero">
<path style=" stroke:none;fill-rule:nonzero;fill:rgb(17.999268%,18.798828%,57.299805%);fill-opacity:1;" d="M 351.464844 207.75 L 351.261719 209.960938 C 348.816406 209.496094 346.871094 208.253906 345.429688 206.234375 C 343.914063 204.128906 343.292969 201.589844 343.5625 198.621094 C 343.878906 195.15625 345.144531 192.492188 347.351563 190.625 C 349.5625 188.757813 352.378906 187.980469 355.804688 188.292969 C 358.671875 188.558594 361.074219 189.628906 363.011719 191.515625 C 365.332031 193.8125 366.316406 196.867188 365.96875 200.671875 C 365.730469 203.28125 364.941406 205.457031 363.59375 207.203125 C 362.023438 209.226563 359.921875 210.269531 357.285156 210.328125 L 357.484375 208.121094 C 359.429688 207.976563 360.980469 207.152344 362.140625 205.652344 C 363.148438 204.300781 363.746094 202.574219 363.9375 200.484375 C 364.191406 197.734375 363.640625 195.519531 362.289063 193.828125 C 360.828125 192.007813 358.59375 190.960938 355.585938 190.683594 C 352.957031 190.445313 350.773438 190.9375 349.03125 192.164063 C 347.019531 193.566406 345.871094 195.78125 345.59375 198.808594 C 345.160156 203.550781 347.117188 206.527344 351.464844 207.75 "/>
</g>
<path style=" stroke:none;fill-rule:nonzero;fill:rgb(17.999268%,18.798828%,57.299805%);fill-opacity:1;" d="M 341.785156 216.25 L 362.453125 221.871094 L 361.871094 224.011719 L 353.128906 221.636719 L 349.066406 236.574219 L 357.8125 238.949219 L 357.226563 241.09375 L 336.558594 235.472656 L 337.140625 233.328125 L 347.101563 236.039063 L 351.160156 221.101563 L 341.203125 218.394531 "/>
<path style=" stroke:none;fill-rule:nonzero;fill:rgb(17.999268%,18.798828%,57.299805%);fill-opacity:1;" d="M 333.839844 242.875 L 353.234375 251.96875 L 352.09375 254.394531 L 329.148438 260.222656 L 345.71875 267.996094 L 344.773438 270.003906 L 325.382813 260.910156 L 326.480469 258.5625 L 349.464844 252.652344 L 332.898438 244.882813 "/>
<path style=" stroke:none;fill-rule:nonzero;fill:rgb(17.999268%,18.798828%,57.299805%);fill-opacity:1;" d="M 329.304688 275.242188 C 326.835938 273.496094 324.378906 272.917969 321.925781 273.511719 C 319.765625 274.039063 317.9375 275.355469 316.445313 277.460938 C 314.957031 279.566406 314.320313 281.726563 314.542969 283.941406 C 314.800781 286.453125 316.160156 288.578125 318.625 290.324219 C 321.089844 292.070313 323.550781 292.644531 326.003906 292.054688 C 328.164063 291.527344 329.992188 290.210938 331.484375 288.101563 C 332.972656 285.996094 333.605469 283.835938 333.386719 281.621094 C 333.128906 279.113281 331.769531 276.984375 329.304688 275.242188 M 330.6875 273.28125 C 333.628906 275.359375 335.246094 277.953125 335.550781 281.058594 C 335.832031 283.878906 335.03125 286.621094 333.148438 289.28125 C 331.265625 291.941406 328.945313 293.609375 326.191406 294.28125 C 323.160156 295.027344 320.179688 294.363281 317.238281 292.285156 C 314.300781 290.203125 312.683594 287.609375 312.378906 284.507813 C 312.097656 281.683594 312.898438 278.945313 314.78125 276.285156 C 316.664063 273.621094 318.984375 271.957031 321.738281 271.285156 C 324.765625 270.535156 327.75 271.203125 330.6875 273.28125 "/>
<path style=" stroke:none;fill-rule:nonzero;fill:rgb(17.999268%,18.798828%,57.299805%);fill-opacity:1;" d="M 303.652344 291.324219 L 318.972656 306.296875 L 317.421875 307.882813 L 303.5625 294.339844 L 294.0625 304.058594 L 292.605469 302.632813 "/>
<path style=" stroke:none;fill-rule:nonzero;fill:rgb(17.999268%,18.798828%,57.299805%);fill-opacity:1;" d="M 293.316406 316.222656 C 291.515625 313.796875 289.359375 312.484375 286.84375 312.285156 C 284.625 312.117188 282.480469 312.800781 280.40625 314.339844 C 278.335938 315.878906 277.0625 317.734375 276.585938 319.90625 C 276.050781 322.371094 276.679688 324.820313 278.484375 327.242188 C 280.285156 329.664063 282.441406 330.980469 284.957031 331.179688 C 287.175781 331.347656 289.320313 330.664063 291.390625 329.125 C 293.464844 327.585938 294.738281 325.730469 295.214844 323.558594 C 295.753906 321.089844 295.117188 318.644531 293.316406 316.222656 M 295.242188 314.789063 C 297.390625 317.679688 298.125 320.648438 297.445313 323.695313 C 296.839844 326.460938 295.226563 328.820313 292.609375 330.761719 C 289.992188 332.707031 287.269531 333.570313 284.441406 333.355469 C 281.332031 333.121094 278.703125 331.5625 276.554688 328.671875 C 274.410156 325.785156 273.675781 322.816406 274.351563 319.773438 C 274.960938 317 276.574219 314.644531 279.191406 312.699219 C 281.808594 310.757813 284.53125 309.894531 287.355469 310.109375 C 290.46875 310.339844 293.097656 311.902344 295.242188 314.789063 "/>
<path style=" stroke:none;fill-rule:nonzero;fill:rgb(17.999268%,18.798828%,57.299805%);fill-opacity:1;" d="M 246.28125 332.453125 L 248.335938 335.957031 L 248.390625 335.929688 C 248.691406 334 249.28125 332.414063 250.167969 331.175781 C 251.113281 329.886719 252.511719 328.785156 254.359375 327.878906 C 257.554688 326.308594 260.511719 326.011719 263.222656 326.996094 C 265.828125 327.945313 267.886719 329.953125 269.394531 333.023438 C 270.851563 335.984375 271.113281 338.863281 270.179688 341.660156 C 269.25 344.460938 267.214844 346.628906 264.074219 348.175781 C 261.488281 349.445313 259.019531 349.859375 256.660156 349.414063 C 254.445313 348.988281 252.742188 347.90625 251.554688 346.171875 L 253.710938 345.113281 C 254.855469 346.492188 256.296875 347.265625 258.027344 347.4375 C 259.644531 347.597656 261.359375 347.234375 263.175781 346.34375 C 265.757813 345.074219 267.398438 343.351563 268.09375 341.183594 C 268.785156 339.015625 268.503906 336.648438 267.238281 334.082031 C 265.953125 331.460938 264.304688 329.765625 262.296875 328.992188 C 260.246094 328.171875 257.953125 328.386719 255.421875 329.628906 C 250.738281 331.933594 249.113281 335.515625 250.550781 340.382813 L 257.601563 336.914063 L 258.503906 338.746094 L 249.617188 343.113281 L 244.746094 333.207031 "/>
<path style=" stroke:none;fill-rule:nonzero;fill:rgb(17.999268%,18.798828%,57.299805%);fill-opacity:1;" d="M 230.414063 337.9375 L 232.976563 346.566406 L 245.746094 355.730469 L 242.984375 356.546875 L 232.546875 349.007813 L 227.914063 361.023438 L 225.152344 361.84375 L 230.847656 347.199219 L 228.285156 338.570313 "/>
<g clip-path="url(#clip3)" clip-rule="nonzero">
<path style=" stroke:none;fill-rule:nonzero;fill:rgb(14.898682%,57.299805%,81.599426%);fill-opacity:1;" d="M 183.988281 342.542969 L 186.902344 346.054688 L 191.328125 344.929688 L 191.621094 349.484375 L 195.863281 351.171875 L 193.425781 355.03125 L 195.863281 358.890625 L 191.621094 360.578125 L 191.328125 365.136719 L 186.902344 364.007813 L 183.988281 367.519531 L 181.070313 364.007813 L 176.644531 365.136719 L 176.351563 360.578125 L 172.109375 358.890625 L 174.546875 355.03125 L 172.109375 351.171875 L 176.351563 349.484375 L 176.644531 344.929688 L 181.070313 346.054688 "/>
</g>
</g>
</svg>
